<svg width="91" height="66" viewBox="0 0 91 66" fill="none" xmlns="http://www.w3.org/2000/svg">
<g clip-path="url(#clip0_1436_1412)">
<path d="M45.5 55.6C35.3 55.6 27 47.5 27 37.4C27 27.3 35.3 19.2 45.5 19.2C55.7 19.2 64 27.4 64 37.4C64 47.5 55.7 55.6 45.5 55.6ZM11.6 55.6C10.9 55.6 10.3 55 10.3 54.3V20.5C10.3 19.8 10.9 19.2 11.6 19.2H12.7C13.4 19.2 14 19.8 14 20.5V54.3C14 55 13.4 55.6 12.7 55.6H11.6ZM72.2 22.8C70.8 22.8 69.6 21.7 69.6 20.2V18.1C69.6 16.7 70.8 15.5 72.2 15.5H78.1C79.5 15.5 80.7 16.7 80.7 18.1V20.2C80.7 21.6 79.5 22.8 78.1 22.8H72.2ZM55.1 1H35.9C33 1 29.9 3.2 29 5.9L27.6 10.1H15.8V7.7C15.8 7 15.2 6.4 14.5 6.4H9.7C9 6.5 8.4 7 8.4 7.7V10.1H6.2C3.3 10.1 1 12.4 1 15.2V59.5C1 62.3 3.3 64.6 6.2 64.6H84.7C87.6 64.6 89.9 62.3 89.9 59.5V15.2C89.9 12.4 87.6 10.1 84.7 10.1H63.4L62 5.9C61.1 3.2 58 1 55.1 1ZM45.5 56.5C56.2 56.5 64.9 48 64.9 37.4C64.9 26.9 56.2 18.3 45.5 18.3C34.8 18.3 26.1 26.8 26.1 37.4C26.1 47.9 34.8 56.5 45.5 56.5ZM11.6 56.5H12.7C13.9 56.5 14.9 55.5 14.9 54.4V20.5C14.9 19.3 13.9 18.4 12.7 18.4H11.6C10.4 18.4 9.4 19.4 9.4 20.5V54.3C9.4 55.5 10.4 56.5 11.6 56.5ZM72.2 23.7H78.1C80 23.7 81.6 22.2 81.6 20.3V18.2C81.6 16.3 80 14.8 78.1 14.8H72.2C70.3 14.8 68.7 16.3 68.7 18.2V20.3C68.7 22.2 70.3 23.7 72.2 23.7ZM55.1 1.8C57.6 1.8 60.4 3.8 61.2 6.1L62.6 10.3L62.8 10.9H63.4H84.7C87.1 10.9 89.1 12.8 89.1 15.2V59.5C89.1 61.9 87.1 63.8 84.7 63.8H6.2C3.8 63.8 1.8 61.9 1.8 59.5V15.2C1.8 12.8 3.8 10.9 6.2 10.9H8.4H9.3V10.1V7.7C9.3 7.5 9.5 7.3 9.7 7.3H14.5C14.7 7.3 14.9 7.5 14.9 7.7V10.1V11H15.8H27.5H28.1L28.3 10.4L29.7 6.2C30.5 3.9 33.3 1.9 35.8 1.9H55.1V1.8Z" fill="#048B9A"/>
<path d="M45.5 55.6C35.3 55.6 27 47.5 27 37.4C27 27.3 35.3 19.2 45.5 19.2C55.7 19.2 64 27.4 64 37.4C64 47.5 55.7 55.6 45.5 55.6ZM11.6 55.6C10.9 55.6 10.3 55 10.3 54.3V20.5C10.3 19.8 10.9 19.2 11.6 19.2H12.7C13.4 19.2 14 19.8 14 20.5V54.3C14 55 13.4 55.6 12.7 55.6H11.6V55.6ZM72.2 22.8C70.8 22.8 69.6 21.7 69.6 20.2V18.1C69.6 16.7 70.8 15.5 72.2 15.5H78.1C79.5 15.5 80.7 16.7 80.7 18.1V20.2C80.7 21.6 79.5 22.8 78.1 22.8H72.2ZM55.1 1H35.9C33 1 29.9 3.2 29 5.9L27.6 10.1H15.8V7.7C15.8 7 15.2 6.4 14.5 6.4H9.7C9 6.5 8.4 7 8.4 7.7V10.1H6.2C3.3 10.1 1 12.4 1 15.2V59.5C1 62.3 3.3 64.6 6.2 64.6H84.7C87.6 64.6 89.9 62.3 89.9 59.5V15.2C89.9 12.4 87.6 10.1 84.7 10.1H63.4L62 5.9C61.1 3.2 58 1 55.1 1ZM45.5 56.5C56.2 56.5 64.9 48 64.9 37.4C64.9 26.9 56.2 18.3 45.5 18.3C34.8 18.3 26.1 26.8 26.1 37.4C26.1 47.9 34.8 56.5 45.5 56.5ZM11.6 56.5H12.7C13.9 56.5 14.9 55.5 14.9 54.4V20.5C14.9 19.3 13.9 18.4 12.7 18.4H11.6C10.4 18.4 9.4 19.4 9.4 20.5V54.3C9.4 55.5 10.4 56.5 11.6 56.5ZM72.2 23.7H78.1C80 23.7 81.6 22.2 81.6 20.3V18.2C81.6 16.3 80 14.8 78.1 14.8H72.2C70.3 14.8 68.7 16.3 68.7 18.2V20.3C68.7 22.2 70.3 23.7 72.2 23.7ZM55.1 1.8C57.6 1.8 60.4 3.8 61.2 6.1L62.6 10.3L62.8 10.9H63.4H84.7C87.1 10.9 89.1 12.8 89.1 15.2V59.5C89.1 61.9 87.1 63.8 84.7 63.8H6.2C3.8 63.8 1.8 61.9 1.8 59.5V15.2C1.8 12.8 3.8 10.9 6.2 10.9H8.4H9.3V10.1V7.7C9.3 7.5 9.5 7.3 9.7 7.3H14.5C14.7 7.3 14.9 7.5 14.9 7.7V10.1V11H15.8H27.5H28.1L28.3 10.4L29.7 6.2C30.5 3.9 33.3 1.9 35.8 1.9H55.1V1.8Z" stroke="#048B9A" stroke-width="2" stroke-miterlimit="10"/>
<path d="M45.5 25.1001C38.6 25.1001 32.9 30.7001 32.9 37.5001C32.9 44.4001 38.5 49.9001 45.5 49.9001C52.4 49.9001 58.1 44.3001 58.1 37.5001C58.1 30.6001 52.4 25.1001 45.5 25.1001ZM45.5 25.9001C52 25.9001 57.2 31.1001 57.2 37.5001C57.2 43.9001 51.9 49.1001 45.5 49.1001C39 49.1001 33.8 43.9001 33.8 37.5001C33.8 31.1001 39 25.9001 45.5 25.9001Z" fill="#048B9A"/>
<path d="M45.5 25.1001C38.6 25.1001 32.9 30.7001 32.9 37.5001C32.9 44.4001 38.5 49.9001 45.5 49.9001C52.4 49.9001 58.1 44.3001 58.1 37.5001C58.1 30.6001 52.4 25.1001 45.5 25.1001ZM45.5 25.9001C52 25.9001 57.2 31.1001 57.2 37.5001C57.2 43.9001 51.9 49.1001 45.5 49.1001C39 49.1001 33.8 43.9001 33.8 37.5001C33.8 31.1001 39 25.9001 45.5 25.9001Z" stroke="#048B9A" stroke-width="2" stroke-miterlimit="10"/>
</g>
<defs>
<clipPath id="clip0_1436_1412">
<rect width="91" height="65.7" fill="white"/>
</clipPath>
</defs>
</svg>
