<svg width="192" height="180" viewBox="0 0 192 180" fill="none" xmlns="http://www.w3.org/2000/svg">
<path d="M31.7 23.1997H0.5V154.7H25.7" stroke="black" stroke-miterlimit="10"/>
<path d="M157.7 23.1997H191.2V154.7H162.7" stroke="black" stroke-miterlimit="10"/>
<path d="M111.8 29.6C98.7 29.6 88 40 88 52.7C88 65.4 98.7 75.8 111.8 75.8C124.9 75.8 135.6 65.4 135.6 52.7C135.6 40 124.9 29.6 111.8 29.6ZM111.8 78.9C96.9 78.9 84.8 67.2 84.8 52.7C84.8 38.3 96.9 26.5 111.8 26.5C126.7 26.5 138.8 38.2 138.8 52.7C138.8 67.2 126.7 78.9 111.8 78.9Z" fill="#3E8996"/>
<path d="M149.9 151.4C149 151.4 148.3 150.7 148.3 149.9V111.2C148.3 96.1001 135.6 83.7001 120 83.7001H103.6C88.0001 83.7001 75.3001 96.0001 75.3001 111.1V149.8C75.3001 150.7 74.6001 151.3 73.7001 151.3C72.8001 151.3 72.1001 150.6 72.1001 149.8V111.1C72.1001 94.3001 86.2001 80.6001 103.5 80.6001H120C137.3 80.6001 151.4 94.3001 151.4 111.1V149.8C151.5 150.7 150.7 151.4 149.9 151.4Z" fill="#3E8996"/>
<path d="M98.4999 140.4H35.5999C28.8999 140.4 23.3999 135.1 23.3999 128.6V103.4C23.3999 96.9001 28.8999 91.6001 35.5999 91.6001H98.3999C105.1 91.6001 110.6 96.9001 110.6 103.4V128.6C110.7 135.1 105.2 140.4 98.4999 140.4Z" fill="white"/>
<path d="M98.4999 91.5H35.5999C28.8999 91.5 23.3999 96.8 23.3999 103.3V128.5C23.3999 135 28.8999 140.3 35.5999 140.3H98.3999C105.1 140.3 110.6 135 110.6 128.5V103.3C110.7 96.8 105.2 91.5 98.4999 91.5ZM98.4999 94.5C103.5 94.5 107.5 98.4 107.5 103.3V128.5C107.5 133.3 103.5 137.3 98.4999 137.3H35.5999C30.5999 137.3 26.5999 133.4 26.5999 128.5V103.3C26.5999 98.5 30.5999 94.5 35.5999 94.5H98.4999Z" fill="#3E8996"/>
<path d="M36.1 101.6C34.1 101.6 32.4001 103.2 32.4001 105.2V128.2C32.4001 130.2 34 131.8 36.1 131.8H53.5C55.5 131.8 57.2001 130.2 57.2001 128.2V105.2C57.2001 103.2 55.6 101.6 53.5 101.6H36.1ZM53.5 134.9H36.1C32.3 134.9 29.3 131.9 29.3 128.2V105.2C29.3 101.5 32.4 98.6001 36.1 98.6001H53.5C57.3 98.6001 60.3 101.6 60.3 105.2V128.2C60.3 131.9 57.3 134.9 53.5 134.9Z" fill="#3E8996"/>
<path d="M45 106.1C42.8 106.1 41 107.9 41 110C41 112.2 42.8 113.9 45 113.9C47.2 113.9 49 112.1 49 110C49 107.8 47.2 106.1 45 106.1ZM45 117C41 117 37.8 113.9 37.8 110C37.8 106.1 41 103 45 103C49 103 52.2001 106.1 52.2001 110C52.2001 113.9 49 117 45 117Z" fill="#3E8996"/>
<path d="M36.6 134.5C35.7 134.5 35 133.8 35 133V124.1C35 120.8 37.9 118.2 41.5 118.2H48.5C52.1 118.2 55 120.9 55 124.1V132.7C55 133.6 54.3 134.2 53.4 134.2C52.5 134.2 51.8 133.5 51.8 132.7V124.1C51.8 122.5 50.3 121.3 48.4 121.3H41.4C39.5 121.3 38 122.6 38 124.1V133C38.1 133.8 37.4 134.5 36.6 134.5Z" fill="#3E8996"/>
<path d="M102.9 106.1H65.7001C64.8001 106.1 64.1001 105.4 64.1001 104.6C64.1001 103.8 64.8001 103.1 65.7001 103.1H102.9C103.8 103.1 104.5 103.8 104.5 104.6C104.5 105.4 103.8 106.1 102.9 106.1Z" fill="#3E8996"/>
<path d="M102.9 111.6H65.7001C64.8001 111.6 64.1001 110.9 64.1001 110.1C64.1001 109.3 64.8001 108.6 65.7001 108.6H102.9C103.8 108.6 104.5 109.3 104.5 110.1C104.5 110.9 103.8 111.6 102.9 111.6Z" fill="#3E8996"/>
<path d="M87.3001 117.6H65.7001C64.8001 117.6 64.1001 116.9 64.1001 116.1C64.1001 115.2 64.8001 114.6 65.7001 114.6H87.3001C88.2001 114.6 88.9001 115.3 88.9001 116.1C88.9001 116.9 88.1001 117.6 87.3001 117.6Z" fill="#3E8996"/>
<path d="M2.3999 178.7L180.7 0.399902" stroke="#2B2B2A"/>
<path d="M9.69995 1.1001L187.7 179.1" stroke="#2B2B2A"/>
</svg>
