<svg width="194" height="181" viewBox="0 0 194 181" fill="none" xmlns="http://www.w3.org/2000/svg">
<g clip-path="url(#clip0_2402_4)">
<path d="M150.1 27.2998H39.3001C32.6001 27.2998 27.1001 32.6998 27.1001 39.4998V93.1998C27.1001 99.8998 32.5001 105.4 39.3001 105.4H150.1C156.8 105.4 162.3 99.9998 162.3 93.1998V39.3998C162.3 32.6998 156.8 27.2998 150.1 27.2998ZM150.1 30.3998C155.1 30.3998 159.1 34.3998 159.1 39.3998V93.0998C159.1 98.0998 155.1 102.1 150.1 102.1H39.3001C34.3001 102.1 30.3001 98.0998 30.3001 93.0998V39.3998C30.3001 34.3998 34.3001 30.3998 39.3001 30.3998H150.1Z" fill="#3E8996"/>
<path d="M43.8 42.6C41.8 42.6 40.1 44.2 40.1 46.3V88.9C40.1 90.9 41.7 92.6 43.8 92.6H76.6C78.6 92.6 80.3 91 80.3 88.9V46.3C80.3 44.3 78.7 42.6 76.6 42.6H43.8ZM76.6 95.7H43.8C40 95.7 37 92.6 37 88.9V46.3C37 42.5 40.1 39.5 43.8 39.5H76.6C80.4 39.5 83.4 42.6 83.4 46.3V88.9C83.4 92.6 80.4 95.7 76.6 95.7Z" fill="#3E8996"/>
<path d="M60.5 49.7C56.6 49.7 53.4 52.9 53.4 56.8C53.4 60.7 56.6 63.9 60.5 63.9C64.4 63.9 67.5999 60.7 67.5999 56.8C67.6999 52.9 64.5 49.7 60.5 49.7ZM60.5 67.1C54.8 67.1 50.2 62.5 50.2 56.8C50.2 51.1 54.8 46.5 60.5 46.5C66.2 46.5 70.8 51.1 70.8 56.8C70.8 62.5 66.2 67.1 60.5 67.1Z" fill="#3E8996"/>
<path d="M47.4999 95.0998C46.5999 95.0998 45.8999 94.3998 45.8999 93.4998V77.9998C45.8999 72.8998 49.9999 68.7998 55.0999 68.7998H65.9999C71.0999 68.7998 75.1999 72.9998 75.1999 77.9998V92.9998C75.1999 93.8998 74.4999 94.5998 73.5999 94.5998C72.6999 94.5998 71.9999 93.7998 71.9999 92.9998V77.9998C71.9999 74.5998 69.2999 71.8998 65.8999 71.8998H55.0999C51.6999 71.8998 48.9999 74.5998 48.9999 77.9998V93.4998C48.9999 94.3998 48.2999 95.0998 47.4999 95.0998Z" fill="#3E8996"/>
<path d="M150.3 49.7H92.6C91.7 49.7 91 49 91 48.1C91 47.2 91.7 46.5 92.6 46.5H150.3C151.2 46.5 151.9 47.2 151.9 48.1C151.9 49 151.2 49.7 150.3 49.7Z" fill="#3E8996"/>
<path d="M150.3 58.4998H92.6C91.7 58.4998 91 57.7998 91 56.8998C91 55.9998 91.7 55.2998 92.6 55.2998H150.3C151.2 55.2998 151.9 55.9998 151.9 56.8998C151.9 57.7998 151.2 58.4998 150.3 58.4998Z" fill="#3E8996"/>
<path d="M126 68.0999H92.6C91.7 68.0999 91 67.3999 91 66.4999C91 65.5999 91.7 64.8999 92.6 64.8999H126C126.9 64.8999 127.6 65.5999 127.6 66.4999C127.6 67.3999 126.9 68.0999 126 68.0999Z" fill="#3E8996"/>
<path d="M27.2 0.5H0.5V132H27.2" stroke="black" stroke-miterlimit="10"/>
<path d="M166 0.5H192.7V132H166" stroke="black" stroke-miterlimit="10"/>
</g>
<circle cx="97" cy="155" r="26" fill="#FFCB03"/>
<path d="M84 153L94.5 163.5L111 147" stroke="white" stroke-width="4" stroke-linecap="round"/>
<defs>
<clipPath id="clip0_2402_4">
<rect width="193.2" height="132.5" fill="white"/>
</clipPath>
</defs>
</svg>
