<svg width="158" height="158" viewBox="0 0 158 158" fill="none" xmlns="http://www.w3.org/2000/svg">
<g clip-path="url(#clip0_1461_1044)">
<path d="M78.6 2.6C36.7 2.6 2.6 36.7 2.6 78.6C2.6 120.5 36.7 154.6 78.6 154.6C120.5 154.6 154.6 120.5 154.6 78.6C154.6 36.7 120.5 2.6 78.6 2.6ZM78.6 157.2C35.3 157.2 0 122 0 78.6C0 35.2 35.3 0 78.6 0C121.9 0 157.2 35.3 157.2 78.6C157.2 121.9 122 157.2 78.6 157.2Z" fill="#078D99"/>
<path d="M45.9002 97.3H46.9002V64.1H45.9002V97.3ZM46.9002 99.9H45.8002C44.4002 99.9 43.2002 98.8 43.2002 97.3V64.1C43.2002 62.7 44.3002 61.5 45.8002 61.5H46.9002C48.3002 61.5 49.4002 62.6 49.4002 64.1V97.3C49.5002 98.8 48.4002 99.9 46.9002 99.9Z" fill="#078D99"/>
<path d="M78.5999 69.5C72.3999 69.5 67.3999 74.5 67.3999 80.7C67.3999 86.9 72.3999 91.9 78.5999 91.9C84.7999 91.9 89.7999 86.9 89.7999 80.7C89.7999 74.6 84.7999 69.5 78.5999 69.5ZM78.5999 94.6C70.9999 94.6 64.7999 88.4 64.7999 80.8C64.7999 73.2 70.9999 67 78.5999 67C86.1999 67 92.3999 73.2 92.3999 80.8C92.3999 88.4 86.1999 94.6 78.5999 94.6ZM78.5999 64.2C69.4999 64.2 61.9999 71.6 61.9999 80.8C61.9999 90 69.3999 97.4 78.5999 97.4C87.6999 97.4 95.1999 90 95.1999 80.8C95.1999 71.6 87.7999 64.2 78.5999 64.2ZM78.5999 99.9C67.9999 99.9 59.3999 91.3 59.3999 80.7C59.3999 70.1 67.9999 61.5 78.5999 61.5C89.1999 61.5 97.7999 70.1 97.7999 80.7C97.7999 91.3 89.1999 99.9 78.5999 99.9Z" fill="#078D99"/>
<path d="M104.4 60.6C103.7 60.6 103.2 61.2 103.2 61.8V63.9C103.2 64.6 103.8 65.1 104.4 65.1H110.1C110.8 65.1 111.3 64.5 111.3 63.9V61.8C111.3 61.1 110.7 60.6 110.1 60.6H104.4ZM110.1 67.7H104.4C102.3 67.7 100.6 66 100.6 63.9V61.8C100.6 59.7 102.3 58 104.4 58H110.1C112.2 58 113.9 59.7 113.9 61.8V63.9C113.9 66 112.2 67.7 110.1 67.7Z" fill="#078D99"/>
<path d="M104.4 60.6002C103.7 60.6002 103.2 61.2002 103.2 61.8002V63.9002C103.2 64.6002 103.8 65.1002 104.4 65.1002H110.1C110.8 65.1002 111.3 64.5002 111.3 63.9002V61.8002C111.3 61.1002 110.7 60.6002 110.1 60.6002H104.4ZM110.1 67.7002H104.4C102.3 67.7002 100.6 66.0002 100.6 63.9002V61.8002C100.6 59.7002 102.3 58.0002 104.4 58.0002H110.1C112.2 58.0002 113.9 59.7002 113.9 61.8002V63.9002C113.9 66.0002 112.2 67.7002 110.1 67.7002ZM45.8999 97.3002H46.8999V64.1002H45.8999V97.3002ZM44.5999 97.4002H45.8999H44.5999ZM46.8999 99.9002H45.7999C44.3999 99.9002 43.1999 98.8002 43.1999 97.3002V64.1002C43.1999 62.7002 44.2999 61.5002 45.7999 61.5002H46.8999C48.2999 61.5002 49.4999 62.6002 49.4999 64.1002V97.3002C49.4999 98.8002 48.3999 99.9002 46.8999 99.9002ZM78.5999 64.2002C69.4999 64.2002 61.9999 71.6002 61.9999 80.8002C61.9999 90.0002 69.3999 97.4002 78.5999 97.4002C87.6999 97.4002 95.1999 90.0002 95.1999 80.8002C95.1999 71.6002 87.7999 64.2002 78.5999 64.2002ZM78.5999 99.9002C67.9999 99.9002 59.3999 91.3002 59.3999 80.7002C59.3999 70.1002 67.9999 61.5002 78.5999 61.5002C89.1999 61.5002 97.7999 70.1002 97.7999 80.7002C97.7999 91.3002 89.1999 99.9002 78.5999 99.9002ZM40.6999 55.2002C38.5999 55.2002 36.8999 56.9002 36.8999 59.0002V102.5C36.8999 104.6 38.5999 106.3 40.6999 106.3H116.4C118.5 106.3 120.2 104.6 120.2 102.5V59.0002C120.2 56.9002 118.5 55.2002 116.4 55.2002H95.8999C95.2999 55.2002 94.8999 54.8002 94.6999 54.3002L93.2999 50.1002C92.5999 48.0002 90.0999 46.2002 87.8999 46.2002H69.2999C67.0999 46.2002 64.5999 48.0002 63.8999 50.1002L62.4999 54.3002C62.2999 54.8002 61.7999 55.2002 61.2999 55.2002H49.9999C49.2999 55.2002 48.6999 54.6002 48.6999 53.9002V51.6002H44.0999V53.9002C44.0999 54.6002 43.4999 55.2002 42.7999 55.2002H40.6999ZM116.5 108.9H40.6999C37.1999 108.9 34.3999 106.1 34.3999 102.6V59.0002C34.3999 55.5002 37.1999 52.7002 40.6999 52.7002H41.4999V51.7002C41.4999 50.3002 42.5999 49.1002 43.9999 49.1002H48.5999C49.9999 49.1002 51.0999 50.2002 51.0999 51.7002V52.7002H60.1999L61.2999 49.4002C62.3999 46.2002 65.7999 43.7002 69.1999 43.7002H87.6999C90.9999 43.7002 94.4999 46.2002 95.5999 49.4002L96.6999 52.7002H116.4C119.9 52.7002 122.7 55.5002 122.7 59.0002V102.5C122.8 106 120 108.9 116.5 108.9Z" fill="#078D99"/>
<path d="M78.5998 69.5C72.3998 69.5 67.3998 74.5 67.3998 80.7C67.3998 86.9 72.3998 91.9 78.5998 91.9C84.7998 91.9 89.7998 86.9 89.7998 80.7C89.7998 74.6 84.7998 69.5 78.5998 69.5ZM78.5998 94.6C70.9998 94.6 64.7998 88.4 64.7998 80.8C64.7998 73.2 70.9998 67 78.5998 67C86.1998 67 92.3998 73.2 92.3998 80.8C92.3998 88.4 86.1998 94.6 78.5998 94.6Z" fill="#078D99"/>
</g>
<defs>
<clipPath id="clip0_1461_1044">
<rect width="157.2" height="157.2" fill="white"/>
</clipPath>
</defs>
</svg>
