<svg width="158" height="158" viewBox="0 0 158 158" fill="none" xmlns="http://www.w3.org/2000/svg">
<g clip-path="url(#clip0_1458_97)">
<path d="M43.1 122.6L48.2 94.7001C48.3 94.1001 48.2 93.5001 48 92.9001C44.7 86.0001 23.1 37.7 70.1 29.3C108.4 22.5 114.8 61 115.4 65.6C115.4 65.9 115.5 66.2001 115.7 66.5L124.8 85.3001C125.5 86.7001 124.9 88.4 123.6 89.1L115.1 93.6001C114.1 94.1001 113.6 95.1001 113.6 96.2001L113.7 101.2V103.8L113.8 111.1C113.8 112.6 112.6 113.9 111.1 114L95 114.7C93.6 114.8 92.5 115.8 92.3 117.2L91.6 123.4C91.4 124.8 90.2 125.9 88.8 125.9H45.9C44.2 126 42.8 124.4 43.1 122.6Z" fill="#178A99"/>
<path d="M78.6 2.6C36.7 2.6 2.6 36.7 2.6 78.6C2.6 120.5 36.7 154.6 78.6 154.6C120.5 154.6 154.6 120.5 154.6 78.6C154.6 36.7 120.5 2.6 78.6 2.6ZM78.6 157.2C35.3 157.2 0 122 0 78.6C0 35.2 35.3 0 78.6 0C121.9 0 157.2 35.3 157.2 78.6C157.2 121.9 122 157.2 78.6 157.2Z" fill="#010202"/>
<path d="M25.69 23.8317L23.8516 25.6702L132.886 134.705L134.725 132.867L25.69 23.8317Z" fill="#010202"/>
</g>
<defs>
<clipPath id="clip0_1458_97">
<rect width="157.2" height="157.2" fill="white"/>
</clipPath>
</defs>
</svg>
