<svg width="158" height="158" viewBox="0 0 158 158" fill="none" xmlns="http://www.w3.org/2000/svg">
<g clip-path="url(#clip0_1458_119)">
<path d="M100.5 45.8C100.5 64.8 115.9 80.1 134.8 80.1C142.1 80.1 148.9 77.8 154.4 73.9C153 49.2 139.6 27.6 120 14.9C108.5 20.4 100.5 32.2 100.5 45.8Z" fill="#178A99"/>
<path d="M154.3 85.4C152.7 85.2 151.1 85 149.5 85H118.7C100.9 85 86.2 99.6 86.2 117.5V154.3C122.4 150.6 151.1 121.6 154.3 85.4Z" fill="#178A99"/>
<path d="M86.3 154.2C83.8 154.5 81.2 154.6 78.6 154.6C36.7 154.6 2.6 120.5 2.6 78.6C2.6 36.7 36.7 2.6 78.6 2.6C93.8 2.6 108 7.1 120 14.9C120.9 14.5 121.9 14.1 122.8 13.7C110.2 5 95 0 78.6 0C35.3 0 0 35.3 0 78.6C0 121.9 35.3 157.2 78.6 157.2C81.2 157.2 83.8 157.1 86.3 156.8V154.2Z" fill="#010202"/>
<path d="M156.9 72.1C156.1 72.8 155.3 73.4 154.5 74C154.6 75.5 154.7 77.1 154.7 78.7C154.7 81 154.6 83.2 154.4 85.4C155.3 85.5 156.1 85.7 156.9 85.9C157.1 83.5 157.2 81.1 157.2 78.7C157.2 76.4 157.1 74.2 156.9 72.1Z" fill="#010202"/>
<path d="M154.5 74C155.3 73.4 156.2 72.7999 156.9 72.0999C154.9 47.7999 141.8 26.7 122.8 13.7C121.8 14.1 120.9 14.5 120 14.9C139.6 27.6 153 49.2 154.5 74Z" fill="#010202"/>
<path d="M86.3 154.2V156.8C123.7 153.2 153.4 123.2 156.9 85.8C156.1 85.6 155.2 85.4 154.4 85.3C151.1 121.6 122.4 150.6 86.3 154.2Z" fill="#010202"/>
<path d="M25.0047 23.8675L23.1663 25.7059L132.201 134.741L134.04 132.902L25.0047 23.8675Z" fill="#010202"/>
</g>
<defs>
<clipPath id="clip0_1458_119">
<rect width="157.2" height="157.2" fill="white"/>
</clipPath>
</defs>
</svg>
