<svg width="158" height="158" viewBox="0 0 158 158" fill="none" xmlns="http://www.w3.org/2000/svg">
<g clip-path="url(#clip0_1461_985)">
<path d="M78.6 2.6C36.7 2.6 2.6 36.7 2.6 78.6C2.6 120.5 36.7 154.6 78.6 154.6C120.5 154.6 154.6 120.5 154.6 78.6C154.6 36.7 120.5 2.6 78.6 2.6ZM78.6 157.2C35.3 157.2 0 122 0 78.6C0 35.2 35.3 0 78.6 0C121.9 0 157.2 35.3 157.2 78.6C157.2 121.9 122 157.2 78.6 157.2Z" fill="#078D99"/>
<path d="M78.6001 82.7001C77.3001 82.7001 76.2001 83.8001 76.2001 85.1001C76.2001 86.4001 77.3001 87.5001 78.6001 87.5001C79.9001 87.5001 81.0001 86.4001 81.0001 85.1001C81.0001 83.7001 79.9001 82.7001 78.6001 82.7001ZM78.6001 90.1001C75.8001 90.1001 73.6001 87.9001 73.6001 85.1001C73.6001 82.3001 75.8001 80.1001 78.6001 80.1001C81.4001 80.1001 83.6001 82.3001 83.6001 85.1001C83.6001 87.9001 81.4001 90.1001 78.6001 90.1001Z" fill="#078D99"/>
<path d="M63.6999 119.9C61.9999 119.9 60.5999 121.3 60.5999 123V124.6C60.5999 125.4 61.2999 126 61.9999 126H94.9999C95.7999 126 96.3999 125.3 96.3999 124.6V123C96.3999 121.3 94.9999 119.9 93.3999 119.9H84.4999C83.0999 119.9 81.8999 118.7 81.8999 117.3V106.8C81.8999 106.2 82.3999 105.6 82.9999 105.5C96.9999 103.3 107.6 90.8998 107.6 76.6998V66.7998C107.6 66.2998 107.4 65.7998 107 65.3998C106.6 64.9998 106.1 64.8998 105.6 64.8998C104.6 64.9998 103.8 65.8998 103.8 66.8998V76.3998C103.8 90.3998 92.5999 101.9 78.6999 102C71.8999 102.1 65.4999 99.4998 60.6999 94.6998C55.8999 89.8998 53.1999 83.4998 53.1999 76.6998V66.8998C53.1999 65.7998 52.3999 64.8998 51.3999 64.8998C50.8999 64.8998 50.3999 64.9998 49.9999 65.3998C49.5999 65.7998 49.3999 66.2998 49.3999 66.7998V76.6998C49.4999 90.9998 59.9999 103.3 73.9999 105.5C74.5999 105.6 75.0999 106.1 75.0999 106.8V117.3C75.0999 118.7 73.8999 119.9 72.4999 119.9H63.6999ZM95.0999 128.5H62.0999C59.8999 128.5 58.0999 126.7 58.0999 124.5V122.9C58.0999 119.8 60.5999 117.3 63.6999 117.3H72.5999V107.9C57.7999 105 46.8999 91.7998 46.8999 76.7998V66.8998C46.8999 65.6998 47.3999 64.4998 48.2999 63.5998C49.1999 62.6998 50.3999 62.2998 51.6999 62.3998C54.0999 62.5998 55.8999 64.5998 55.8999 66.9998V76.7998C55.8999 82.8998 58.2999 88.5998 62.5999 92.8998C66.8999 97.1998 72.5999 99.4998 78.5999 99.4998C78.6999 99.4998 78.7999 99.4998 78.7999 99.4998C91.1999 99.3998 101.3 88.9998 101.3 76.4998V66.9998C101.3 64.5998 103.1 62.5998 105.5 62.3998C106.8 62.2998 108 62.6998 108.9 63.5998C109.8 64.3998 110.3 65.5998 110.3 66.8998V76.7998C110.3 91.8998 99.2999 105.1 84.6999 107.9V117.3H93.5999C96.6999 117.3 99.1999 119.8 99.1999 122.9V124.5C99.1999 126.7 97.2999 128.5 95.0999 128.5Z" fill="#078D99"/>
<path d="M78.6999 31.5999C68.9999 31.5999 60.9999 39.3999 60.9999 48.9999V76.3999C60.9999 86.0999 68.8999 93.9999 78.5999 93.9999C88.2999 93.9999 96.1999 86.0999 96.1999 76.3999L96.3999 48.9999C96.3999 39.3999 88.3999 31.5999 78.6999 31.5999ZM78.5999 96.5999C67.3999 96.5999 58.3999 87.4999 58.3999 76.3999L58.4999 48.9999C58.4999 37.9999 67.5999 29.0999 78.6999 29.0999C89.8999 28.9999 98.8999 37.9999 98.8999 48.9999L98.7999 76.3999C98.7999 87.4999 89.7999 96.5999 78.5999 96.5999Z" fill="#078D99"/>
<path d="M79 36.7001C72.1 36.7001 66.4001 42.2001 66.4001 49.0001L66.3001 62.1001C70.5001 62.1001 74.1001 62.1001 77.9001 62.1001C82.0001 62.1001 86.2001 62.1001 91.5 62.1001L91.6 49.0001C91.6 42.2001 86 36.7001 79 36.7001ZM65.1 64.7001C64.8 64.7001 64.4 64.6001 64.2 64.3001C64 64.1001 63.8 63.7001 63.8 63.4001L63.9001 49.0001C63.9001 40.8001 70.7 34.1001 79 34.1001C87.3 34.1001 94.2 40.8001 94.2 49.0001L94.1 63.4001C94.1 64.1001 93.5001 64.7001 92.8001 64.7001C87.0001 64.7001 82.4 64.7001 78 64.7001C73.8 64.7001 69.8 64.7001 65.1 64.7001Z" fill="#078D99"/>
<path d="M78.6001 82.7001C77.3001 82.7001 76.2001 83.8001 76.2001 85.1001C76.2001 86.4001 77.3001 87.5001 78.6001 87.5001C79.9001 87.5001 81.0001 86.4001 81.0001 85.1001C81.0001 83.7001 79.9001 82.7001 78.6001 82.7001ZM78.6001 90.1001C75.8001 90.1001 73.6001 87.9001 73.6001 85.1001C73.6001 82.3001 75.8001 80.1001 78.6001 80.1001C81.4001 80.1001 83.6001 82.3001 83.6001 85.1001C83.6001 87.9001 81.4001 90.1001 78.6001 90.1001Z" fill="#078D99"/>
<path d="M83.4001 63.2999C82.7001 63.2999 82.1001 64.1999 82.1001 63.4999V36.6999C82.1001 35.9999 82.7001 35.3999 83.4001 35.3999C84.1001 35.3999 84.7001 35.9999 84.7001 36.6999V63.4999C84.7001 64.1999 84.1001 63.5999 83.4001 63.5999" fill="#078D99"/>
<path d="M74.5 64.0998C73.8 64.0998 73.2 64.1998 73.2 63.4998V36.5998C73.2 35.8998 73.8 35.2998 74.5 35.2998C75.2 35.2998 75.8 35.8998 75.8 36.5998V63.4998C75.8 64.1998 75.3 64.0998 74.5 64.0998Z" fill="#078D99"/>
</g>
<defs>
<clipPath id="clip0_1461_985">
<rect width="157.2" height="157.2" fill="white"/>
</clipPath>
</defs>
</svg>
