<svg width="158" height="158" viewBox="0 0 158 158" fill="none" xmlns="http://www.w3.org/2000/svg">
<g clip-path="url(#clip0_1458_236)">
<path d="M114.8 117.71H43.0996C36.4996 117.71 31.0996 112.31 31.0996 105.71V57.9102C31.0996 51.3102 36.4996 45.9102 43.0996 45.9102H114.8C121.4 45.9102 126.8 51.3102 126.8 57.9102V105.71C126.8 112.31 121.4 117.71 114.8 117.71Z" fill="#178A99"/>
<path d="M31.0998 61.9102H126C126 61.9102 129.9 45.9102 111.2 45.9102H45.7998C30.2998 45.9102 31.0998 61.9102 31.0998 61.9102Z" fill="white"/>
<path d="M111.2 45.9102H45.7998C30.2998 45.9102 31.0998 61.9102 31.0998 61.9102H126C126 61.9102 129.9 45.9102 111.2 45.9102ZM111.2 48.5102C116.3 48.5102 119.8 49.8102 121.8 52.3102C123.6 54.6102 123.8 57.5102 123.7 59.4102H33.8998C34.1998 57.2102 34.9998 54.0102 37.1998 51.7102C39.1998 49.6102 42.0998 48.5102 45.7998 48.5102H111.2Z" fill="#178A99"/>
<path d="M104.5 54.0103C104.5 56.3103 102.7 58.1103 100.4 58.1103C98.0998 58.1103 96.2998 56.2103 96.2998 54.0103C96.2998 51.8103 98.0998 49.9103 100.4 49.9103C102.7 49.8103 104.5 51.7103 104.5 54.0103Z" fill="#178A99"/>
<path d="M94.7996 54.0103C94.7996 56.3103 92.9996 58.1103 90.6996 58.1103C88.3996 58.1103 86.5996 56.2103 86.5996 54.0103C86.5996 51.8103 88.3996 49.9103 90.6996 49.9103C92.9996 49.8103 94.7996 51.7103 94.7996 54.0103Z" fill="#178A99"/>
<path d="M114.6 54.0103C114.6 56.3103 112.8 58.1103 110.5 58.1103C108.2 58.1103 106.4 56.2103 106.4 54.0103C106.4 51.8103 108.2 49.9103 110.5 49.9103C112.8 49.8103 114.6 51.7103 114.6 54.0103Z" fill="#178A99"/>
<path d="M92.3 56.2101C92.1 56.2101 92 56.1101 91.8 56.0101L88.6 52.8101C88.3 52.5101 88.3 52.1101 88.6 51.9101C88.9 51.6101 89.3 51.6101 89.5 51.9101L92.7 55.1101C93 55.4101 93 55.8101 92.7 56.0101C92.6 56.1101 92.4 56.2101 92.3 56.2101Z" fill="white"/>
<path d="M89.1 56.2101C88.9 56.2101 88.8 56.1101 88.6 56.0101C88.3 55.7101 88.3 55.3101 88.6 55.1101L91.8 51.9101C92.1 51.6101 92.5 51.6101 92.7 51.9101C93 52.2101 93 52.6101 92.7 52.8101L89.5 56.0101C89.4 56.1101 89.3 56.2101 89.1 56.2101Z" fill="white"/>
<path d="M113.3 75.7103H43.6C42.2 75.7103 41 74.5103 41 73.1103C41 71.7103 42.2 70.5103 43.6 70.5103H113.2C114.6 70.5103 115.8 71.7103 115.8 73.1103C115.8 74.5103 114.7 75.7103 113.3 75.7103Z" fill="white"/>
<path d="M113.3 87.8101H43.6C42.2 87.8101 41 86.6101 41 85.2101C41 83.8101 42.2 82.6101 43.6 82.6101H113.2C114.6 82.6101 115.8 83.8101 115.8 85.2101C115.8 86.7101 114.7 87.8101 113.3 87.8101Z" fill="white"/>
<path d="M113.3 100.01H43.6C42.2 100.01 41 98.8101 41 97.4101C41 96.0101 42.2 94.8101 43.6 94.8101H113.2C114.6 94.8101 115.8 96.0101 115.8 97.4101C115.8 98.9101 114.7 100.01 113.3 100.01Z" fill="white"/>
<path d="M7.8999 78.9102H20.3999" stroke="#178A99" stroke-width="2" stroke-miterlimit="10" stroke-linecap="round"/>
<path d="M25.2002 77.8101L16.6002 72.8101C15.8002 72.3101 14.7002 72.9101 14.7002 73.9101V83.9101C14.7002 84.9101 15.7002 85.4101 16.6002 85.0101L25.2002 80.0101C26.0002 79.5101 26.0002 78.3101 25.2002 77.8101Z" fill="#178A99"/>
<path d="M148 80.61H135.4C134.7 80.61 134.1 80.01 134.1 79.31C134.1 78.61 134.7 78.01 135.4 78.01H148C148.7 78.01 149.3 78.61 149.3 79.31C149.2 80.01 148.7 80.61 148 80.61Z" fill="#178A99"/>
<path d="M130.6 78.21L139.2 73.21C140 72.71 141.1 73.31 141.1 74.31V84.31C141.1 85.31 140.1 85.81 139.2 85.41L130.6 80.41C129.8 79.91 129.8 78.71 130.6 78.21Z" fill="#178A99"/>
<path d="M78.6 2.91006C36.7 2.91006 2.6 37.0101 2.6 78.9101C2.6 120.81 36.7 154.91 78.6 154.91C120.5 154.91 154.6 120.81 154.6 78.9101C154.6 37.0101 120.5 2.91006 78.6 2.91006ZM78.6 157.51C35.3 157.51 0 122.31 0 78.9101C0 35.5101 35.3 0.310059 78.6 0.310059C121.9 0.310059 157.2 35.6101 157.2 78.9101C157.2 122.21 122 157.51 78.6 157.51Z" fill="#010202"/>
<path d="M25.691 24.142L23.8525 25.9805L132.887 135.015L134.726 133.177L25.691 24.142Z" fill="#010202"/>
</g>
<defs>
<clipPath id="clip0_1458_236">
<rect width="157.2" height="157.2" fill="white" transform="translate(0 0.310059)"/>
</clipPath>
</defs>
</svg>
