<svg width="158" height="158" viewBox="0 0 158 158" fill="none" xmlns="http://www.w3.org/2000/svg">
<g clip-path="url(#clip0_1461_582)">
<path d="M59.9001 108.9H97.2C98.4 108.9 99.3001 107.9 99.3001 106.8V44.1C99.3001 42.9 98.3 42 97.2 42H59.9001C58.7001 42 57.8 43 57.8 44.1V106.8C57.8 107.9 58.8001 108.9 59.9001 108.9Z" fill="white"/>
<path d="M72.2 37.8H85C85.7 37.8 86.2 37 86.2 36.1V36C86.2 35.1 85.6 34.3 85 34.3H72.2C71.5 34.3 71 35.1 71 36V36.1C71 37 71.5 37.8 72.2 37.8Z" fill="white"/>
<path d="M83 114H74.2C72.6 114 71.3 115.3 71.3 116.9C71.3 118.5 72.6 119.8 74.2 119.8H83C84.6 119.8 85.9 118.5 85.9 116.9C85.9 115.3 84.6 114 83 114Z" fill="white"/>
<path d="M71 36.1001V36.0001C71 35.1001 71.6 34.3001 72.2 34.3001H85C85.7 34.3001 86.2 35.1001 86.2 36.0001V36.1001C86.2 37.0001 85.6 37.8001 85 37.8001H72.2C71.5 37.8001 71 37.0001 71 36.1001ZM99.4 106.8C99.4 108 98.4 108.9 97.3 108.9H59.9C58.7 108.9 57.8 107.9 57.8 106.8V44.1001C57.8 42.9001 58.8 42.0001 59.9 42.0001H97.2C98.4 42.0001 99.3 43.0001 99.3 44.1001V106.8H99.4ZM71.3 116.9C71.3 115.3 72.6 114 74.2 114H83C84.6 114 85.9 115.3 85.9 116.9C85.9 118.5 84.6 119.8 83 119.8H74.2C72.6 119.8 71.3 118.5 71.3 116.9ZM98.8 30.1001H58.3C54.8 30.1001 52 33.0001 52 36.4001V118.3C52 121.8 54.9 124.6 58.3 124.6H98.8C102.3 124.6 105.1 121.7 105.1 118.3V36.5001C105.2 33.0001 102.3 30.1001 98.8 30.1001Z" fill="#178A99"/>
<path d="M78.6 2.6C36.7 2.6 2.6 36.7 2.6 78.6C2.6 120.5 36.7 154.6 78.6 154.6C120.5 154.6 154.6 120.5 154.6 78.6C154.6 36.7 120.5 2.6 78.6 2.6ZM78.6 157.2C35.3 157.2 0 122 0 78.6C0 35.3 35.3 0 78.6 0C121.9 0 157.2 35.3 157.2 78.6C157.2 122 122 157.2 78.6 157.2Z" fill="#010202"/>
<path d="M132.2 134.7L23.2 25.6999L25 23.8999L134 132.9L132.2 134.7Z" fill="#010202"/>
</g>
<defs>
<clipPath id="clip0_1461_582">
<rect width="157.2" height="157.2" fill="white"/>
</clipPath>
</defs>
</svg>
