<svg width="158" height="158" viewBox="0 0 158 158" fill="none" xmlns="http://www.w3.org/2000/svg">
<g clip-path="url(#clip0_1461_851)">
<path d="M132.2 118.5C131.8 118.5 131.5 118.4 131.2 118.1C130.7 117.6 130.8 116.8 131.3 116.3C137.2 111.2 140.6 103.8 140.6 96C140.6 88.3 137.3 80.9 131.5 75.8C131 75.3 130.9 74.5 131.4 74C131.9 73.5 132.7 73.4 133.2 73.9C139.6 79.5 143.2 87.5 143.2 96C143.2 104.5 139.5 112.6 133.1 118.2C132.8 118.4 132.5 118.5 132.2 118.5Z" fill="#178A99"/>
<path d="M121.8 110.2C121.4 110.2 121.1 110 120.8 109.7C120.4 109.1 120.4 108.3 121 107.9C124.6 105 126.7 100.6 126.7 96.0002C126.7 91.4002 124.7 87.1002 121.1 84.2002C120.6 83.7002 120.5 82.9002 120.9 82.4002C121.4 81.8002 122.2 81.8002 122.7 82.2002C126.9 85.6002 129.2 90.6002 129.2 96.0002C129.2 101.4 126.8 106.5 122.5 109.9C122.4 110.1 122.1 110.2 121.8 110.2Z" fill="#178A99"/>
<path d="M33.1999 117.8L38.2999 89.9002C38.3999 89.3002 38.2999 88.7002 38.0999 88.1002C34.6999 81.3002 13.0999 33.0002 60.1999 24.6002C98.4999 17.8002 104.9 56.3002 105.5 60.9002C105.5 61.2002 105.6 61.5002 105.8 61.8002L114.9 80.6002C115.6 82.0002 115 83.7002 113.7 84.4002L105.2 88.9002C104.2 89.4002 103.7 90.4002 103.7 91.5002L103.8 96.5002V99.1002L103.9 106.4C103.9 107.9 102.7 109.2 101.2 109.3L85.0999 110C83.6999 110.1 82.5999 111.1 82.3999 112.5L81.6999 118.7C81.4999 120.1 80.2999 121.2 78.8999 121.2H35.9999C34.1999 121.2 32.8999 119.6 33.1999 117.8Z" fill="#178A99"/>
<path d="M78.6 2.6C36.7 2.6 2.6 36.7 2.6 78.6C2.6 120.5 36.7 154.6 78.6 154.6C120.5 154.6 154.6 120.5 154.6 78.6C154.6 36.7 120.5 2.6 78.6 2.6ZM78.6 157.2C35.3 157.2 0 122 0 78.6C0 35.3 35.3 0 78.6 0C121.9 0 157.2 35.3 157.2 78.6C157.2 122 122 157.2 78.6 157.2Z" fill="#010202"/>
<path d="M25.691 23.8315L23.8525 25.6699L132.887 134.705L134.726 132.866L25.691 23.8315Z" fill="#010202"/>
</g>
<defs>
<clipPath id="clip0_1461_851">
<rect width="157.2" height="157.2" fill="white"/>
</clipPath>
</defs>
</svg>
