<svg width="158" height="158" viewBox="0 0 158 158" fill="none" xmlns="http://www.w3.org/2000/svg">
<g clip-path="url(#clip0_1461_590)">
<path d="M110.8 54.8L105.9 69.2C105.8 69.6 106.1 70 106.5 70H116.3C116.7 70 117 69.6 116.9 69.2L112 54.8C111.7 54.3 111 54.3 110.8 54.8Z" fill="#178A99"/>
<path d="M101.8 107.5V43.5C101.8 41.4 100.1 39.7 97.9999 39.7H47.1999C45.0999 39.7 43.3999 41.4 43.3999 43.5V122C43.3999 124.1 45.0999 125.8 47.1999 125.8H85.1999V107.6H101.8V107.5ZM57.2999 59H87.9999C89.3999 59 90.5999 60.1999 90.5999 61.5999C90.5999 62.9999 89.3999 64.1999 87.9999 64.1999H57.2999C55.8999 64.1999 54.6999 62.9999 54.6999 61.5999C54.6999 60.1999 55.7999 59 57.2999 59ZM57.2999 69.9H87.9999C89.3999 69.9 90.5999 71.1 90.5999 72.5C90.5999 73.9 89.3999 75.0999 87.9999 75.0999H57.2999C55.8999 75.0999 54.6999 73.9 54.6999 72.5C54.6999 71.1 55.7999 69.9 57.2999 69.9ZM57.2999 80.8H87.9999C89.3999 80.8 90.5999 82 90.5999 83.4C90.5999 84.8 89.3999 86 87.9999 86H57.2999C55.8999 86 54.6999 84.8 54.6999 83.4C54.6999 82 55.7999 80.8 57.2999 80.8ZM54.6999 94.3C54.6999 92.9 55.8999 91.6999 57.2999 91.6999H87.9999C89.3999 91.6999 90.5999 92.9 90.5999 94.3C90.5999 95.7 89.3999 96.9 87.9999 96.9H57.2999C55.7999 96.9 54.6999 95.8 54.6999 94.3Z" fill="#178A99"/>
<path d="M90.3999 112.7V123.1L100.2 112.7H90.3999Z" fill="#178A99"/>
<path d="M78.6 2.6C36.7 2.6 2.6 36.7 2.6 78.6C2.6 120.5 36.7 154.6 78.6 154.6C120.5 154.6 154.6 120.5 154.6 78.6C154.6 36.7 120.5 2.6 78.6 2.6ZM78.6 157.2C35.3 157.2 0 122 0 78.6C0 35.3 35.3 0 78.6 0C121.9 0 157.2 35.3 157.2 78.6C157.2 122 122 157.2 78.6 157.2Z" fill="#010202"/>
<path d="M115.6 125.6H107.4C106.3 125.6 105.3 124.7 105.3 123.5V74.3C105.3 73.2 106.2 72.2 107.4 72.2H115.6C116.7 72.2 117.7 73.1 117.7 74.3V123.5C117.7 124.6 116.8 125.6 115.6 125.6Z" fill="#178A99"/>
<path d="M24.1949 23.8437L22.3564 25.6821L131.391 134.717L133.23 132.878L24.1949 23.8437Z" fill="#010202"/>
</g>
<defs>
<clipPath id="clip0_1461_590">
<rect width="157.2" height="157.2" fill="white"/>
</clipPath>
</defs>
</svg>
