<svg width="158" height="158" viewBox="0 0 158 158" fill="none" xmlns="http://www.w3.org/2000/svg">
<g clip-path="url(#clip0_1461_719)">
<path d="M65.8 19.1998C51.8 19.1998 40.4 30.5998 40.4 44.5998C40.4 58.5998 51.8 69.9998 65.8 69.9998C79.8 69.9998 91.2 58.5998 91.2 44.5998C91.2 30.5998 79.8 19.1998 65.8 19.1998ZM65.8 73.8998C49.6 73.8998 36.5 60.7998 36.5 44.5998C36.5 28.3998 49.7 15.2998 65.8 15.2998C81.9 15.2998 95.1 28.3998 95.1 44.5998C95.1 60.7998 81.9 73.8998 65.8 73.8998Z" fill="#078D99"/>
<path d="M120.2 43.0001C120.2 58.1001 107.9 70.4001 92.7999 70.4001C77.6999 70.4001 65.3999 58.1001 65.3999 43.0001C65.3999 27.9001 77.6999 15.6001 92.7999 15.6001C107.9 15.6001 120.2 27.8001 120.2 43.0001Z" fill="#178A99"/>
<path d="M26.6998 134.3V101.7C26.6998 89.2998 36.7998 79.1998 49.1998 79.1998H59.5998C62.6998 76.8998 66.4998 75.5998 70.5998 75.5998H86.1998C84.8998 75.3998 83.6998 75.2998 82.3998 75.2998H49.1998C34.5998 75.2998 22.7998 87.0998 22.7998 101.7V130.4C23.9998 131.8 25.2998 133.1 26.6998 134.3Z" fill="#078D99"/>
<path d="M115.1 75.6001H86.2002C98.9002 77.5001 108.8 88.5001 108.8 101.7V148.5C118.3 144.3 126.9 138.3 133.9 130.8V94.4001C133.9 84.1001 125.4 75.6001 115.1 75.6001Z" fill="#178A99"/>
<path d="M51.7998 94.3998V150C60.0998 153.1 69.0998 154.9 78.5998 154.9C87.8998 154.9 96.7998 153.2 105 150.2V101.8C105 89.3998 94.8998 79.2998 82.4998 79.2998H59.5998C54.7998 82.5998 51.7998 88.1998 51.7998 94.3998Z" fill="#178A99"/>
<path d="M104.9 101.7V150.1C106.2 149.6 107.5 149.1 108.8 148.5V101.7C108.8 88.5001 99.0001 77.5001 86.2001 75.6001H70.6001C66.5001 75.6001 62.7001 77.0001 59.6001 79.2001H82.4001C94.8001 79.2001 104.9 89.3001 104.9 101.7Z" fill="#178A99"/>
<path d="M22.8 130.7C9.8 116.8 1.8 98.2002 1.8 77.7002C1.8 47.2002 19.4 20.9002 44.9 8.2002C18.4 20.7002 0 47.8002 0 79.0002C0 100.5 8.7 120 22.8 134.2V130.7Z" fill="#010202"/>
<path d="M51.8002 150.2C42.4002 146.6 33.9002 141.3 26.7002 134.6V137.9C34.0002 144.3 42.5002 149.4 51.8002 152.8V150.2Z" fill="#010202"/>
<path d="M133.9 133.1V134.6C145.8 122.8 153.9 107.1 156.3 89.7002C153.7 106.6 145.6 121.7 133.9 133.1Z" fill="#010202"/>
<path d="M22.7998 130.7V134.2C24.0998 135.5 25.3998 136.7 26.6998 137.9V134.6C25.2998 133.3 23.9998 132 22.7998 130.7Z" fill="#010202"/>
<path d="M108.8 149.6V151.4C118.2 147.4 126.8 141.7 133.9 134.6V133.1C126.7 140.1 118.2 145.7 108.8 149.6Z" fill="#010202"/>
<path d="M51.7998 150.2V152.8C60.1998 155.8 69.1998 157.5 78.5998 157.5C87.7998 157.5 96.6998 155.9 105 152.9V151C96.9998 153.7 88.4998 155.3 79.5998 155.3C69.6998 155.3 60.3998 153.5 51.7998 150.2Z" fill="#010202"/>
<path d="M104.9 151V152.8C106.2 152.3 107.5 151.8 108.8 151.3V149.5C107.5 150.1 106.2 150.6 104.9 151Z" fill="#010202"/>
<path d="M1.7998 77.7C1.7998 98.2 9.7998 116.9 22.7998 130.7V130.4C10.2998 116.9 2.5998 98.8 2.5998 79C2.5998 37.2 36.6998 3.1 78.4998 3.1C120.4 3.1 154.4 37.1 154.4 79C154.4 99 146.6 117.2 133.9 130.8V133.1C145.6 121.7 153.7 106.6 156.3 89.7C156.8 86.2 157 82.7 157 79C157 35.7 121.8 0.5 78.4998 0.5C66.4998 0.5 55.0998 3.2 44.8998 8.1C19.2998 20.8 1.7998 47.2 1.7998 77.7Z" fill="#010202"/>
<path d="M26.7002 134.3V134.6C33.9002 141.3 42.4002 146.6 51.8002 150.2V150C42.4002 146.4 33.9002 141.1 26.7002 134.3Z" fill="#010202"/>
<path d="M26.6998 134.6V134.3C25.3998 133 24.0998 131.7 22.7998 130.4V130.7C23.9998 132 25.2998 133.3 26.6998 134.6Z" fill="#010202"/>
<path d="M108.8 148.5V149.5C118.2 145.7 126.7 140 133.9 133V130.7C126.9 138.3 118.3 144.4 108.8 148.5Z" fill="#010202"/>
<path d="M78.5002 154.9C69.1002 154.9 60.1002 153.2 51.7002 150V150.2C60.3002 153.5 69.7002 155.3 79.4002 155.3C88.3002 155.3 96.8002 153.8 104.8 151V150.1C96.7002 153.2 87.8002 154.9 78.5002 154.9Z" fill="#010202"/>
<path d="M104.9 150.1V151C106.2 150.5 107.5 150.1 108.8 149.5V148.5C107.5 149.1 106.2 149.6 104.9 150.1Z" fill="#010202"/>
<path d="M24.9598 24.3629L23.1221 26.2021L131.991 134.979L133.829 133.139L24.9598 24.3629Z" fill="#010202"/>
</g>
<defs>
<clipPath id="clip0_1461_719">
<rect width="157.2" height="157.5" fill="white"/>
</clipPath>
</defs>
</svg>
